<?xml version="1.0" encoding="UTF-8"?>
<!DOCTYPE svg PUBLIC "-//W3C//DTD SVG 1.1//EN" "http://www.w3.org/Graphics/SVG/1.1/DTD/svg11.dtd">
<!-- Creator: CorelDRAW X8 -->
<svg xmlns="http://www.w3.org/2000/svg" xml:space="preserve" width="44.3243mm" height="11.3341mm" version="1.1" style="shape-rendering:geometricPrecision; text-rendering:geometricPrecision; image-rendering:optimizeQuality; fill-rule:evenodd; clip-rule:evenodd"
viewBox="0 0 2775 710"
 xmlns:xlink="http://www.w3.org/1999/xlink">
 <defs>
  <style type="text/css">
   <![CDATA[
    .fil2 {fill:#B2B3B3;fill-rule:nonzero}
    .fil1 {fill:#EF7F1A;fill-rule:nonzero}
    .fil0 {fill:#144478;fill-rule:nonzero}
   ]]>
  </style>
 </defs>
 <g id="Ebene_x0020_1">
  <metadata id="CorelCorpID_0Corel-Layer"/>
  <path class="fil0" d="M0 116l128 0c26,0 46,2 61,5 14,4 26,10 35,19 10,8 16,19 20,32 4,13 6,31 6,55l0 31 -83 0 0 -17c0,-23 -4,-38 -11,-46 -8,-8 -23,-12 -45,-12l-25 0 0 247 -86 0 0 -314z"/>
  <path id="1" class="fil0" d="M571 239l0 67 -182 0c2,21 9,35 20,44 12,8 31,13 57,13l105 0 0 67 -115 0c-25,0 -45,-3 -61,-7 -15,-4 -30,-12 -44,-23 -38,-29 -57,-73 -57,-131 0,-38 10,-71 30,-100 14,-19 31,-33 50,-41 19,-8 45,-12 76,-12l121 0 0 67 -115 0c-23,0 -40,4 -49,12 -10,8 -16,23 -18,44l182 0z"/>
  <path id="2" class="fil0" d="M951 116l0 311c0,18 -2,34 -6,47 -4,14 -10,26 -18,35 -9,12 -21,21 -35,25 -14,5 -35,7 -61,7l-172 0 0 -67 160 0c19,0 31,-3 37,-9 6,-5 9,-17 9,-35l-79 0c-26,0 -46,-3 -63,-8 -16,-6 -31,-15 -45,-27 -31,-30 -47,-70 -47,-122 0,-60 19,-103 57,-130 14,-10 29,-17 44,-21 15,-4 35,-6 58,-6l161 0zm-86 67l-71 0c-50,0 -75,30 -75,90 0,29 7,52 21,67 13,15 32,23 58,23l67 0 0 -180z"/>
  <path id="3" class="fil0" d="M1044 116l86 0 0 314 -86 0 0 -314zm0 -32l0 -84 86 0 0 84 -86 0z"/>
  <path id="4" class="fil0" d="M1368 111c58,0 100,17 128,51 25,30 38,69 38,115 0,49 -16,88 -48,117 -29,27 -69,40 -119,40 -53,0 -94,-15 -124,-45 -27,-27 -41,-67 -41,-118 0,-44 13,-81 40,-110 29,-32 71,-49 126,-50zm0 67c-51,0 -77,32 -77,96 0,26 4,46 13,59 14,23 35,35 65,35 51,0 76,-32 76,-96 0,-62 -25,-94 -77,-94z"/>
  <path id="5" class="fil1" d="M1868 116l0 67 -103 0c-35,0 -59,8 -72,23 -13,15 -19,37 -19,67 0,34 10,58 31,73 8,7 18,11 28,13 10,2 24,4 42,4l93 0 0 67 -118 0c-32,0 -57,-4 -75,-10 -19,-6 -35,-18 -49,-34 -27,-30 -41,-68 -41,-114 0,-56 16,-98 49,-125 12,-11 28,-19 46,-24 18,-5 41,-7 70,-7l118 0z"/>
  <path id="6" class="fil1" d="M2087 111c58,0 101,17 128,51 26,30 38,69 38,115 0,49 -15,88 -47,117 -30,27 -70,40 -120,40 -53,0 -94,-15 -123,-45 -28,-27 -41,-67 -41,-118 0,-44 13,-81 39,-110 29,-32 71,-49 126,-50zm1 67c-52,0 -77,32 -77,96 0,26 4,46 12,59 14,23 36,35 65,35 51,0 77,-32 77,-96 0,-62 -26,-94 -77,-94z"/>
  <path id="7" class="fil1" d="M2326 116l317 0c29,0 51,2 66,6 15,4 27,12 37,23 19,20 29,49 29,85l0 200 -87 0 0 -187c0,-15 0,-25 -2,-31 -1,-6 -4,-11 -8,-16 -9,-9 -23,-13 -41,-13l-46 0 0 247 -86 0 0 -247 -93 0 0 247 -86 0 0 -314z"/>
  <path class="fil2" d="M1713 536l0 -64 48 0 0 238 -82 0c-17,0 -29,-2 -38,-4 -20,-7 -35,-19 -45,-38 -7,-13 -10,-28 -10,-46 0,-30 10,-53 30,-70 13,-10 30,-16 52,-16l45 0zm0 137l0 -100 -34 0c-15,0 -27,5 -35,15 -6,9 -10,20 -10,34 0,19 6,33 17,42 8,6 17,9 28,9l34 0z"/>
  <path id="1" class="fil2" d="M1954 604l0 37 -100 0c0,12 4,20 11,24 6,5 16,8 31,8l58 0 0 37 -63 0c-14,0 -25,-2 -34,-4 -9,-3 -17,-7 -25,-13 -21,-16 -31,-40 -31,-72 0,-21 5,-40 17,-55 7,-11 16,-19 27,-23 11,-5 25,-7 42,-7l67 0 0 37 -63 0c-13,0 -23,2 -28,7 -5,4 -8,12 -9,24l100 0z"/>
  <path id="2" class="fil2" d="M2148 536l0 37 -84 0c-10,0 -16,1 -19,2 -5,1 -8,6 -8,14 0,6 3,11 8,14 3,2 10,3 23,3l28 0c18,0 32,3 43,11 11,9 17,21 17,38 0,12 -4,24 -10,34 -6,8 -12,14 -20,17 -7,2 -20,4 -37,4l-99 0 0 -37 85 0c11,0 18,-1 22,-1 8,-1 12,-6 12,-14 0,-7 -2,-12 -8,-15 -3,-1 -10,-2 -21,-2l-29 0c-11,0 -19,-1 -26,-2 -6,-2 -11,-4 -16,-8 -7,-5 -12,-11 -16,-19 -3,-8 -5,-16 -5,-25 0,-18 6,-32 19,-42 7,-6 20,-9 39,-9l102 0z"/>
  <path id="3" class="fil2" d="M2348 536l0 37 -85 0c-9,0 -15,1 -18,2 -5,1 -8,6 -8,14 0,6 2,11 8,14 2,2 10,3 23,3l28 0c18,0 32,3 42,11 12,9 18,21 18,38 0,12 -4,24 -11,34 -5,8 -11,14 -19,17 -7,2 -20,4 -37,4l-99 0 0 -37 85 0c11,0 18,-1 21,-1 9,-1 13,-6 13,-14 0,-7 -3,-12 -8,-15 -3,-1 -10,-2 -21,-2l-29 0c-11,0 -20,-1 -26,-2 -6,-2 -11,-4 -17,-8 -6,-5 -11,-11 -15,-19 -3,-8 -5,-16 -5,-25 0,-18 6,-32 19,-42 7,-6 20,-9 39,-9l102 0z"/>
  <path id="4" class="fil2" d="M2517 604c0,-12 -2,-20 -7,-24 -5,-5 -15,-7 -29,-7l-81 0 0 -37 81 0c14,0 24,0 30,1 5,0 11,2 16,3 27,10 39,34 38,72l0 98 -101 0c-18,0 -30,-1 -37,-2 -7,-1 -13,-3 -18,-7 -14,-9 -21,-24 -21,-43 0,-11 3,-22 8,-31 6,-9 13,-15 22,-19 9,-2 22,-4 41,-4l58 0zm0 37l-55 0 -8 0c-5,0 -9,2 -13,5 -3,2 -4,6 -4,11 0,6 2,10 5,12 4,2 11,4 20,4l55 0 0 -32z"/>
  <path id="5" class="fil2" d="M2727 673l0 -137 48 0 0 174 -94 0c-14,0 -24,-1 -31,-3 -8,-2 -14,-6 -20,-11 -12,-11 -18,-29 -18,-53l0 -107 47 0 0 112c0,7 2,13 6,18 5,4 10,7 17,7l45 0z"/>
 </g>
</svg>
