<?xml version="1.0" encoding="utf-8"?>
<!-- Generator: Adobe Illustrator 16.0.3, SVG Export Plug-In . SVG Version: 6.00 Build 0)  -->
<!DOCTYPE svg PUBLIC "-//W3C//DTD SVG 1.1//EN" "http://www.w3.org/Graphics/SVG/1.1/DTD/svg11.dtd">
<svg version="1.1" id="Layer_1" xmlns="http://www.w3.org/2000/svg" xmlns:xlink="http://www.w3.org/1999/xlink" x="0px" y="0px"
	 width="127.22px" height="43.121px" viewBox="0 0 127.22 43.121" enable-background="new 0 0 127.22 43.121" xml:space="preserve">
<path fill="#FFFFFF" d="M126.929,21.5l-2.777-9.627l-2.529,9.627h-0.467v0.279h0.154v0.691l-0.873-0.344l0.002-5.23h0.176v-0.408
	h-0.896L117.356,0l-2.561,16.488h-0.754v0.408h0.156v5.076l-0.988,0.348V21.78h0.279V21.5h-0.545l-0.055-0.205l-2.527-9.463
	l-2.66,9.668h-0.277v0.279h0.275v14.544h-1.459v-4.697l-2.01-2.009H90.833l-1.057,0.916v-9.449h-0.723v-1.791h0.057
	c0.088-0.15,0.137-0.174,0.137-0.5c0-0.324-0.344-0.881-0.842-1.07v-2.199H88.22v-1.266h-0.32V9.684h-0.238v4.574h-0.32v1.266
	h-0.188v2.199c-0.496,0.189-0.84,0.746-0.84,1.07c0,0.326,0.047,0.35,0.135,0.5h0.057v1.791h-0.689v15.089h-1.383V21.93
	l-8.691-1.018L73.856,22v14.324h-1.332v-9.81l-2.256-5.711h-2.68v-1.16H67.36l-0.352-2.406l-0.338,2.395l-0.244,0.012v1.16h-7.442
	l-1.846,5.781v9.74h-1.516V17.362h-0.977v-2.477h-0.232c0-0.044,0-0.1,0-0.182c0-0.557-0.709-1.93-1.652-2.127v-2.451h-0.797v2.451
	c-0.943,0.197-1.654,1.57-1.654,2.127c0,0.082,0,0.138,0,0.182h-0.232v2.477h-1.154v18.962h-1.465V30.76
	c0.371-0.145,0.637-0.535,0.637-0.994c0-0.461-0.266-0.852-0.637-0.996v-0.281h-0.328c0.01-0.07,0.033-0.021,0.016-0.217
	c-0.018-0.197-0.518-1.283-1.158-1.283c-0.639,0-1.162,1.066-1.156,1.283s0.006,0.146,0.016,0.217H42.6
	c0.01-0.07,0.021-0.012,0.016-0.217s-0.518-1.283-1.158-1.283c-0.639,0-1.154,1.076-1.156,1.283
	c-0.004,0.207,0.006,0.146,0.016,0.217h-2.248c0.01-0.07,0.021-0.002,0.016-0.217c-0.004-0.215-0.518-1.283-1.156-1.283
	c-0.641,0-1.158,1.084-1.158,1.283s0.006,0.146,0.016,0.217h-1.699v-3.85h-0.834v-1.451h0.436v-0.561h-0.525l-0.961-4.914
	l-0.943,4.914h-0.545v0.561h0.436v1.451h-0.834v3.85h-1.656c0.01-0.07,0.025-0.051,0.016-0.217
	c-0.008-0.166-0.518-1.283-1.156-1.283c-0.641,0-1.164,1.059-1.158,1.283c0.004,0.225,0.006,0.146,0.016,0.217h-2.248
	c0.01-0.07,0.016-0.029,0.016-0.217s-0.518-1.283-1.156-1.283c-0.641,0-1.154,1.182-1.158,1.283
	c-0.006,0.102,0.006,0.146,0.016,0.217h-1.115h-1.133c0.01-0.07,0.01-0.039,0.016-0.217c0.008-0.178-0.518-1.283-1.156-1.283
	c-0.641,0-1.15,1.15-1.158,1.283c-0.01,0.133,0.006,0.146,0.016,0.217h-0.449v0.332c-0.313,0.172-0.527,0.531-0.527,0.945
	c0,0.414,0.215,0.771,0.527,0.945v5.613h-1.711v-11.21l-1.859-1.857h-0.309v-0.623h0.135V22.43h-0.941v0.203h0.123v0.623H9.85
	v-0.758H9.54v-0.449H9.338v-1.436H9.161v1.436H8.417c-0.031-0.383-0.344-0.684-0.725-0.684c-0.383,0-0.695,0.301-0.727,0.684H6.184
	v-1.436H6.008v1.436H5.844v0.449H5.534v0.758H3.045v-0.623h0.137V22.43H2.239v0.203h0.123v0.623H2.047L0,24.893v11.431v6.797
	h126.971v-6.797V21.78h0.248V21.5H126.929z M54.411,14.885h-0.002C54.41,14.877,54.41,14.879,54.411,14.885z M50.319,14.885h-0.002
	C50.318,14.879,50.318,14.877,50.319,14.885z"/>
<path fill="#03407A" d="M48.429-115l-2.777-9.627L43.122-115h-0.467v0.279h0.154v0.691l-0.873-0.344l0.002-5.23h0.176v-0.408h-0.896
	L38.856-136.5l-2.561,16.488h-0.754v0.408h0.156v5.076l-0.988,0.348v-0.541h0.279V-115h-0.545l-0.055-0.205l-2.527-9.463L29.202-115
	h-0.277v0.279H29.2v14.545h-1.459v-4.697l-2.01-2.01H12.333l-1.057,0.916v-9.449h-0.723v-1.791h0.057
	c0.088-0.15,0.137-0.174,0.137-0.5c0-0.324-0.344-0.881-0.842-1.07v-2.199H9.72v-1.266h-0.32v-4.574H9.161v4.574h-0.32v1.266H8.653
	v2.199c-0.496,0.189-0.84,0.746-0.84,1.07c0,0.326,0.047,0.35,0.135,0.5h0.057v1.791H7.315v15.09H5.933v-14.244l-8.691-1.018
	l-1.885,1.088v14.324h-1.332v-9.811l-2.256-5.711h-2.681v-1.16h-0.229l-0.352-2.406l-0.338,2.395l-0.244,0.012v1.16h-7.441
	l-1.846,5.781v9.74h-1.516v-18.963h-0.977v-2.477h-0.232c0-0.044,0-0.1,0-0.182c0-0.557-0.709-1.93-1.652-2.127v-2.451h-0.797v2.451
	c-0.943,0.197-1.654,1.57-1.654,2.127c0,0.082,0,0.138,0,0.182h-0.232v2.477h-1.154v18.963h-1.465v-5.564
	c0.371-0.145,0.637-0.535,0.637-0.994c0-0.461-0.266-0.852-0.637-0.996v-0.281h-0.328c0.01-0.07,0.033-0.021,0.016-0.217
	c-0.018-0.197-0.518-1.283-1.158-1.283c-0.639,0-1.162,1.066-1.156,1.283s0.006,0.146,0.016,0.217H-35.9
	c0.01-0.07,0.021-0.012,0.016-0.217s-0.518-1.283-1.158-1.283c-0.639,0-1.154,1.076-1.156,1.283
	c-0.004,0.207,0.006,0.146,0.016,0.217h-2.248c0.01-0.07,0.021-0.002,0.016-0.217c-0.004-0.215-0.518-1.283-1.156-1.283
	c-0.641,0-1.158,1.084-1.158,1.283s0.006,0.146,0.016,0.217h-1.699v-3.85h-0.834v-1.451h0.436v-0.561h-0.525l-0.961-4.914
	l-0.943,4.914h-0.545v0.561h0.436v1.451h-0.834v3.85h-1.656c0.01-0.07,0.025-0.051,0.016-0.217
	c-0.008-0.166-0.518-1.283-1.156-1.283c-0.641,0-1.164,1.059-1.158,1.283c0.004,0.225,0.006,0.146,0.016,0.217h-2.248
	c0.01-0.07,0.016-0.029,0.016-0.217s-0.518-1.283-1.156-1.283c-0.641,0-1.154,1.182-1.158,1.283
	c-0.006,0.102,0.006,0.146,0.016,0.217h-1.115h-1.133c0.01-0.07,0.01-0.039,0.016-0.217c0.008-0.178-0.518-1.283-1.156-1.283
	c-0.641,0-1.15,1.15-1.158,1.283c-0.01,0.133,0.006,0.146,0.016,0.217h-0.449v0.332c-0.313,0.172-0.527,0.531-0.527,0.945
	s0.215,0.771,0.527,0.945v5.613h-1.711v-11.211l-1.859-1.857h-0.309v-0.623h0.135v-0.203h-0.941v0.203h0.123v0.623h-2.451v-0.758
	h-0.311v-0.449h-0.201v-1.436h-0.178v1.436h-0.744c-0.031-0.383-0.344-0.684-0.725-0.684c-0.383,0-0.695,0.301-0.727,0.684h-0.781
	v-1.436h-0.176v1.436h-0.164v0.449h-0.311v0.758h-2.488v-0.623h0.137v-0.203h-0.943v0.203h0.123v0.623h-0.314l-2.047,1.637v11.432
	v6.797H48.472v-6.797v-14.545h0.248V-115H48.429z M-24.09-121.615h-0.002C-24.091-121.623-24.091-121.622-24.09-121.615z
	 M-28.182-121.615h-0.002C-28.183-121.622-28.183-121.623-28.182-121.615z"/>
</svg>
